<mxfile host="app.diagrams.net" agent="Mozilla/5.0 (Windows NT 10.0; Win64; x64) AppleWebKit/537.36 (KHTML, like Gecko) Chrome/127.0.0.0 Safari/537.36" version="24.7.6">
  <diagram name="Page-1" id="YBjLCnP0qr87rC2l0TPD">
    <mxGraphModel dx="1050" dy="530" grid="1" gridSize="10" guides="1" tooltips="1" connect="1" arrows="1" fold="1" page="1" pageScale="1" pageWidth="827" pageHeight="1169" math="0" shadow="0">
      <root>
        <mxCell id="0" />
        <mxCell id="1" parent="0" />
        <mxCell id="pb9I8ziDOp2fgeYc50n--6" style="edgeStyle=orthogonalEdgeStyle;rounded=0;orthogonalLoop=1;jettySize=auto;html=1;exitX=1;exitY=0.5;exitDx=0;exitDy=0;entryX=0;entryY=0.5;entryDx=0;entryDy=0;fillColor=#ffe6cc;strokeColor=#d79b00;" edge="1" parent="1" source="pb9I8ziDOp2fgeYc50n--1" target="pb9I8ziDOp2fgeYc50n--3">
          <mxGeometry relative="1" as="geometry" />
        </mxCell>
        <mxCell id="pb9I8ziDOp2fgeYc50n--1" value="IPC Sender" style="rounded=1;whiteSpace=wrap;html=1;fillColor=#ffe6cc;strokeColor=#d79b00;" vertex="1" parent="1">
          <mxGeometry x="60" y="170" width="100" height="60" as="geometry" />
        </mxCell>
        <mxCell id="pb9I8ziDOp2fgeYc50n--2" value="IPC Receiver" style="rounded=1;whiteSpace=wrap;html=1;fillColor=#ffe6cc;strokeColor=#d79b00;" vertex="1" parent="1">
          <mxGeometry x="630" y="170" width="100" height="60" as="geometry" />
        </mxCell>
        <mxCell id="pb9I8ziDOp2fgeYc50n--7" style="edgeStyle=orthogonalEdgeStyle;rounded=0;orthogonalLoop=1;jettySize=auto;html=1;exitX=1;exitY=0.5;exitDx=0;exitDy=0;entryX=0;entryY=0.5;entryDx=0;entryDy=0;fillColor=#fff2cc;strokeColor=#d6b656;" edge="1" parent="1" source="pb9I8ziDOp2fgeYc50n--3" target="pb9I8ziDOp2fgeYc50n--5">
          <mxGeometry relative="1" as="geometry" />
        </mxCell>
        <mxCell id="pb9I8ziDOp2fgeYc50n--3" value="Serialize data" style="rounded=1;whiteSpace=wrap;html=1;fillColor=#ffe6cc;strokeColor=#d79b00;" vertex="1" parent="1">
          <mxGeometry x="200" y="170" width="110" height="60" as="geometry" />
        </mxCell>
        <mxCell id="pb9I8ziDOp2fgeYc50n--9" style="edgeStyle=orthogonalEdgeStyle;rounded=0;orthogonalLoop=1;jettySize=auto;html=1;exitX=1;exitY=0.5;exitDx=0;exitDy=0;entryX=0;entryY=0.5;entryDx=0;entryDy=0;fillColor=#fff2cc;strokeColor=#d6b656;" edge="1" parent="1" source="pb9I8ziDOp2fgeYc50n--4" target="pb9I8ziDOp2fgeYc50n--2">
          <mxGeometry relative="1" as="geometry" />
        </mxCell>
        <mxCell id="pb9I8ziDOp2fgeYc50n--4" value="Parse data" style="rounded=1;whiteSpace=wrap;html=1;fillColor=#ffe6cc;strokeColor=#d79b00;" vertex="1" parent="1">
          <mxGeometry x="490" y="170" width="110" height="60" as="geometry" />
        </mxCell>
        <mxCell id="pb9I8ziDOp2fgeYc50n--8" style="edgeStyle=orthogonalEdgeStyle;rounded=0;orthogonalLoop=1;jettySize=auto;html=1;exitX=1;exitY=0.5;exitDx=0;exitDy=0;entryX=0;entryY=0.5;entryDx=0;entryDy=0;fillColor=#fff2cc;strokeColor=#d6b656;" edge="1" parent="1" source="pb9I8ziDOp2fgeYc50n--5" target="pb9I8ziDOp2fgeYc50n--4">
          <mxGeometry relative="1" as="geometry" />
        </mxCell>
        <mxCell id="pb9I8ziDOp2fgeYc50n--5" value="KIPC" style="rounded=1;whiteSpace=wrap;html=1;fillColor=#ffe6cc;strokeColor=#d79b00;" vertex="1" parent="1">
          <mxGeometry x="340" y="170" width="120" height="60" as="geometry" />
        </mxCell>
        <mxCell id="pb9I8ziDOp2fgeYc50n--19" value="Develope base on Documentation" style="text;html=1;align=center;verticalAlign=middle;whiteSpace=wrap;rounded=0;" vertex="1" parent="1">
          <mxGeometry x="340" y="290" width="106" height="30" as="geometry" />
        </mxCell>
        <mxCell id="pb9I8ziDOp2fgeYc50n--20" value="" style="endArrow=none;html=1;rounded=0;entryX=0.5;entryY=1;entryDx=0;entryDy=0;exitX=0.75;exitY=0;exitDx=0;exitDy=0;" edge="1" parent="1" source="pb9I8ziDOp2fgeYc50n--19" target="pb9I8ziDOp2fgeYc50n--4">
          <mxGeometry width="50" height="50" relative="1" as="geometry">
            <mxPoint x="400" y="280" as="sourcePoint" />
            <mxPoint x="440" y="250" as="targetPoint" />
          </mxGeometry>
        </mxCell>
        <mxCell id="pb9I8ziDOp2fgeYc50n--21" value="" style="endArrow=none;html=1;rounded=0;entryX=0.5;entryY=1;entryDx=0;entryDy=0;exitX=0.25;exitY=0;exitDx=0;exitDy=0;" edge="1" parent="1" source="pb9I8ziDOp2fgeYc50n--19" target="pb9I8ziDOp2fgeYc50n--3">
          <mxGeometry width="50" height="50" relative="1" as="geometry">
            <mxPoint x="390" y="280" as="sourcePoint" />
            <mxPoint x="555" y="240" as="targetPoint" />
          </mxGeometry>
        </mxCell>
      </root>
    </mxGraphModel>
  </diagram>
</mxfile>
